<?xml version="1.0" encoding="UTF-8"?>
<svg width="500px" height="500px" viewBox="0 0 500 500" version="1.1" xmlns="http://www.w3.org/2000/svg" xmlns:xlink="http://www.w3.org/1999/xlink">
    <title>instagram-color</title>
    <g id="Exports" stroke="none" stroke-width="1" fill="none" fill-rule="evenodd">
        <g id="instagram-color" fill-rule="nonzero">
            <g>
                <circle id="Oval" fill="#E1306C" cx="250" cy="250" r="250"></circle>
                <path d="M250,125 C216.041667,125 211.802083,125.15625 198.46875,125.75 C185.15625,126.375 176.09375,128.46875 168.125,131.5625 C159.90625,134.75 152.927083,139.03125 145.979167,145.979167 C139.03125,152.927083 134.739583,159.895833 131.5625,168.125 C128.46875,176.09375 126.364583,185.15625 125.75,198.46875 C125.125,211.802083 125,216.041667 125,250 C125,283.958333 125.15625,288.197917 125.75,301.53125 C126.375,314.833333 128.46875,323.90625 131.5625,331.875 C134.75,340.083333 139.03125,347.072917 145.979167,354.020833 C152.927083,360.958333 159.895833,365.260417 168.125,368.4375 C176.104167,371.520833 185.166667,373.635417 198.46875,374.25 C211.802083,374.875 216.041667,375 250,375 C283.958333,375 288.197917,374.84375 301.53125,374.25 C314.833333,373.625 323.90625,371.520833 331.875,368.4375 C340.083333,365.25 347.072917,360.958333 354.020833,354.020833 C360.958333,347.072917 365.260417,340.114583 368.4375,331.875 C371.520833,323.90625 373.635417,314.833333 374.25,301.53125 C374.875,288.197917 375,283.958333 375,250 C375,216.041667 374.84375,211.802083 374.25,198.46875 C373.625,185.166667 371.520833,176.083333 368.4375,168.125 C365.25,159.90625 360.958333,152.927083 354.020833,145.979167 C347.072917,139.03125 340.114583,134.739583 331.875,131.5625 C323.90625,128.46875 314.833333,126.364583 301.53125,125.75 C288.197917,125.125 283.958333,125 250,125 Z M250,147.5 C283.364583,147.5 287.34375,147.666667 300.520833,148.239583 C312.708333,148.8125 319.322917,150.833333 323.71875,152.5625 C329.572917,154.822917 333.71875,157.53125 338.114583,161.895833 C342.479167,166.270833 345.1875,170.427083 347.447917,176.28125 C349.15625,180.677083 351.197917,187.291667 351.75,199.479167 C352.34375,212.666667 352.479167,216.625 352.479167,250 C352.479167,283.375 352.322917,287.34375 351.708333,300.520833 C351.072917,312.708333 349.041667,319.322917 347.322917,323.71875 C344.989583,329.572917 342.333333,333.71875 337.958333,338.114583 C333.59375,342.479167 329.375,345.1875 323.583333,347.447917 C319.208333,349.15625 312.489583,351.197917 300.302083,351.75 C287.03125,352.34375 283.125,352.479167 249.6875,352.479167 C216.239583,352.479167 212.333333,352.322917 199.072917,351.708333 C186.875,351.072917 180.15625,349.041667 175.78125,347.322917 C169.854167,344.989583 165.78125,342.333333 161.416667,337.958333 C157.03125,333.59375 154.229167,329.375 152.041667,323.583333 C150.322917,319.208333 148.302083,312.489583 147.666667,300.302083 C147.197917,287.177083 147.03125,283.125 147.03125,249.84375 C147.03125,216.552083 147.197917,212.489583 147.666667,199.208333 C148.302083,187.020833 150.322917,180.3125 152.041667,175.9375 C154.229167,170 157.03125,165.9375 161.416667,161.552083 C165.78125,157.1875 169.854167,154.375 175.78125,152.197917 C180.15625,150.46875 186.729167,148.4375 198.916667,147.8125 C212.197917,147.34375 216.104167,147.1875 249.53125,147.1875 L250,147.5 L250,147.5 Z M250,185.8125 C214.53125,185.8125 185.8125,214.5625 185.8125,250 C185.8125,285.46875 214.5625,314.1875 250,314.1875 C285.46875,314.1875 314.1875,285.4375 314.1875,250 C314.1875,214.53125 285.4375,185.8125 250,185.8125 Z M250,291.666667 C226.979167,291.666667 208.333333,273.020833 208.333333,250 C208.333333,226.979167 226.979167,208.333333 250,208.333333 C273.020833,208.333333 291.666667,226.979167 291.666667,250 C291.666667,273.020833 273.020833,291.666667 250,291.666667 Z M331.729167,183.28125 C331.729167,191.5625 325,198.28125 316.729167,198.28125 C308.447917,198.28125 301.729167,191.552083 301.729167,183.28125 C301.729167,175.010417 308.458333,168.291643 316.729167,168.291643 C324.989583,168.28125 331.729167,175.010417 331.729167,183.28125 Z" id="Shape" fill="#FEFEFE"></path>
            </g>
        </g>
    </g>
</svg>